<svg width="1561" height="579" viewBox="0 0 1561 579" fill="none" xmlns="http://www.w3.org/2000/svg">
<path d="M171.651 270.934L228.871 328.159L419.601 137.413" stroke="#30C0C0" stroke-width="2.66545" stroke-linecap="round" stroke-linejoin="round"/>
<path d="M400.532 290.019V423.541C400.532 433.659 396.512 443.363 389.36 450.518C382.205 457.671 372.502 461.691 362.386 461.691H95.3633C85.2464 461.691 75.5439 457.671 68.3901 450.518C61.2363 443.363 57.2174 433.659 57.2174 423.541V156.497C57.2174 146.379 61.2363 136.676 68.3901 129.522C75.5439 122.367 85.2464 118.348 95.3633 118.348H305.166" stroke="#30C0C0" stroke-width="2.66545" stroke-linecap="round" stroke-linejoin="round"/>
<path d="M684.717 411.656V217.443H730.484V411.656H684.717ZM707.726 189.878C700.478 189.878 694.241 187.476 689.014 182.671C683.789 177.782 681.176 171.923 681.176 165.095C681.176 158.183 683.789 152.325 689.014 147.52C694.241 142.631 700.478 140.186 707.726 140.186C715.059 140.186 721.296 142.631 726.438 147.52C731.663 152.325 734.277 158.183 734.277 165.095C734.277 171.923 731.663 177.782 726.438 182.671C721.296 187.476 715.059 189.878 707.726 189.878ZM768.192 192.027V152.704H974.78V192.027H894.75V411.656H848.223V192.027H768.192ZM1070.39 415.449C1050.92 415.449 1034.11 411.403 1019.95 403.311C1005.87 395.134 995.04 383.587 987.455 368.666C979.869 353.662 976.076 336.002 976.076 315.687C976.076 295.709 979.869 278.176 987.455 263.088C995.125 247.914 1005.83 236.113 1019.57 227.683C1033.31 219.17 1049.45 214.914 1067.99 214.914C1079.96 214.914 1091.26 216.852 1101.88 220.729C1112.58 224.523 1122.02 230.423 1130.2 238.432C1138.46 246.44 1144.95 256.639 1149.67 269.031C1154.39 281.337 1156.75 296.004 1156.75 313.032V327.067H997.569V296.214H1112.88C1112.79 287.448 1110.89 279.651 1107.19 272.824C1103.48 265.912 1098.29 260.475 1091.63 256.513C1085.06 252.551 1077.39 250.57 1068.62 250.57C1059.27 250.57 1051.05 252.846 1043.97 257.398C1036.89 261.866 1031.37 267.766 1027.41 275.099C1023.53 282.349 1021.55 290.315 1021.46 298.997V325.929C1021.46 337.224 1023.53 346.918 1027.66 355.01C1031.79 363.018 1037.56 369.172 1044.98 373.471C1052.4 377.686 1061.08 379.792 1071.03 379.792C1077.69 379.792 1083.71 378.866 1089.11 377.011C1094.5 375.072 1099.18 372.248 1103.14 368.54C1107.1 364.83 1110.09 360.237 1112.12 354.757L1154.85 359.563C1152.15 370.858 1147.01 380.72 1139.43 389.15C1131.92 397.495 1122.32 403.986 1110.6 408.622C1098.88 413.173 1085.48 415.449 1070.39 415.449ZM1348.95 268.777L1307.23 273.329C1306.05 269.115 1303.99 265.152 1301.04 261.444C1298.17 257.735 1294.29 254.743 1289.4 252.467C1284.52 250.19 1278.53 249.052 1271.45 249.052C1261.93 249.052 1253.92 251.117 1247.43 255.248C1241.02 259.378 1237.86 264.731 1237.95 271.306C1237.86 276.954 1239.93 281.548 1244.14 285.088C1248.44 288.629 1255.52 291.537 1265.38 293.813L1298.51 300.893C1316.88 304.855 1330.54 311.135 1339.47 319.733C1348.49 328.332 1353.04 339.584 1353.13 353.493C1353.04 365.716 1349.46 376.506 1342.38 385.862C1335.38 395.134 1325.65 402.383 1313.17 407.61C1300.7 412.837 1286.37 415.449 1270.19 415.449C1246.42 415.449 1227.28 410.475 1212.79 400.53C1198.29 390.498 1189.65 376.548 1186.87 358.677L1231.5 354.378C1233.52 363.145 1237.82 369.762 1244.4 374.229C1250.97 378.697 1259.52 380.932 1270.06 380.932C1280.93 380.932 1289.66 378.697 1296.23 374.229C1302.89 369.762 1306.22 364.24 1306.22 357.665C1306.22 352.102 1304.07 347.508 1299.77 343.884C1295.56 340.258 1288.98 337.477 1280.05 335.538L1246.92 328.584C1228.3 324.706 1214.51 318.174 1205.58 308.986C1196.65 299.714 1192.22 287.996 1192.3 273.835C1192.22 261.866 1195.47 251.497 1202.04 242.73C1208.7 233.879 1217.93 227.052 1229.73 222.247C1241.61 217.358 1255.31 214.914 1270.82 214.914C1293.58 214.914 1311.49 219.76 1324.55 229.454C1337.7 239.148 1345.84 252.255 1348.95 268.777ZM1487.83 217.443V252.846H1376.2V217.443H1487.83ZM1403.76 170.912H1449.52V353.24C1449.52 359.394 1450.45 364.114 1452.31 367.402C1454.24 370.605 1456.78 372.796 1459.9 373.977C1463.02 375.156 1466.47 375.746 1470.26 375.746C1473.14 375.746 1475.74 375.536 1478.1 375.115C1480.55 374.693 1482.4 374.313 1483.67 373.977L1491.38 409.76C1488.94 410.603 1485.43 411.53 1480.88 412.541C1476.41 413.553 1470.93 414.142 1464.45 414.311C1452.99 414.649 1442.65 412.92 1433.48 409.127C1424.29 405.25 1416.99 399.264 1411.6 391.172C1406.29 383.08 1403.68 372.965 1403.76 360.827V170.912Z" fill="#30C0C0"/>
</svg>
