<svg width="106" height="32" viewBox="0 0 106 32" fill="none" xmlns="http://www.w3.org/2000/svg">
<path d="M11.9941 14.6679L15.9923 18.6661L29.3195 5.33887" stroke="#30C0C0" stroke-width="2.66545" stroke-linecap="round" stroke-linejoin="round"/>
<path d="M27.9871 16.0013V25.3304C27.9871 26.0373 27.7062 26.7153 27.2064 27.2152C26.7065 27.715 26.0285 27.9959 25.3216 27.9959H6.66349C5.95657 27.9959 5.27861 27.715 4.77874 27.2152C4.27887 26.7153 3.99805 26.0373 3.99805 25.3304V6.67228C3.99805 5.96536 4.27887 5.2874 4.77874 4.78753C5.27861 4.28766 5.95657 4.00684 6.66349 4.00684H21.3234" stroke="#30C0C0" stroke-width="2.66545" stroke-linecap="round" stroke-linejoin="round"/>
<path d="M47.8444 24.5V10.9305H51.0424V24.5H47.8444ZM49.4522 9.00457C48.9457 9.00457 48.5099 8.83672 48.1447 8.50101C47.7796 8.15942 47.597 7.75009 47.597 7.27304C47.597 6.79009 47.7796 6.38077 48.1447 6.04506C48.5099 5.70347 48.9457 5.53267 49.4522 5.53267C49.9646 5.53267 50.4004 5.70347 50.7597 6.04506C51.1248 6.38077 51.3074 6.79009 51.3074 7.27304C51.3074 7.75009 51.1248 8.15942 50.7597 8.50101C50.4004 8.83672 49.9646 9.00457 49.4522 9.00457ZM53.6772 9.15475V6.40727H68.1125V9.15475H62.5204V24.5H59.2694V9.15475H53.6772ZM74.7935 24.765C73.433 24.765 72.2581 24.4823 71.2686 23.9169C70.2851 23.3456 69.5282 22.5388 68.9982 21.4963C68.4681 20.448 68.2031 19.2141 68.2031 17.7947C68.2031 16.3989 68.4681 15.1739 68.9982 14.1197C69.5341 13.0595 70.2821 12.235 71.2421 11.646C72.2021 11.0512 73.33 10.7538 74.6257 10.7538C75.462 10.7538 76.2512 10.8892 76.9933 11.1601C77.7412 11.4252 78.4009 11.8374 78.9722 12.397C79.5493 12.9565 80.0028 13.6691 80.3326 14.5349C80.6625 15.3947 80.8274 16.4195 80.8274 17.6092V18.5898H69.7049V16.4342H77.7619C77.756 15.8217 77.6234 15.2769 77.3643 14.7999C77.1052 14.317 76.743 13.9371 76.2777 13.6603C75.8183 13.3835 75.2823 13.2451 74.6698 13.2451C74.0161 13.2451 73.4419 13.4041 72.9471 13.7221C72.4524 14.0343 72.0666 14.4465 71.7898 14.9589C71.5189 15.4654 71.3805 16.022 71.3746 16.6286V18.5103C71.3746 19.2995 71.5189 19.9768 71.8075 20.5422C72.0961 21.1017 72.4995 21.5317 73.0178 21.832C73.5361 22.1265 74.1427 22.2737 74.8377 22.2737C75.303 22.2737 75.7241 22.209 76.101 22.0794C76.4779 21.9439 76.8048 21.7466 77.0816 21.4875C77.3584 21.2283 77.5675 20.9074 77.7088 20.5245L80.6949 20.8603C80.5064 21.6495 80.1471 22.3385 79.6171 22.9275C79.0929 23.5106 78.4215 23.9641 77.6028 24.288C76.7842 24.606 75.8477 24.765 74.7935 24.765ZM94.2578 14.5172L91.3424 14.8352C91.26 14.5408 91.1157 14.2639 90.9096 14.0048C90.7093 13.7457 90.4384 13.5366 90.0968 13.3776C89.7552 13.2185 89.337 13.139 88.8423 13.139C88.1768 13.139 87.6173 13.2833 87.1638 13.5719C86.7162 13.8605 86.4953 14.2345 86.5012 14.6939C86.4953 15.0885 86.6396 15.4095 86.9341 15.6568C87.2345 15.9042 87.7292 16.1074 88.4183 16.2664L90.7329 16.7611C92.0168 17.0379 92.9709 17.4767 93.5952 18.0774C94.2254 18.6782 94.5434 19.4644 94.5493 20.4362C94.5434 21.2902 94.2931 22.0441 93.7984 22.6978C93.3096 23.3456 92.6293 23.8521 91.7577 24.2173C90.886 24.5825 89.8848 24.765 88.754 24.765C87.0931 24.765 85.7562 24.4175 84.7432 23.7226C83.7302 23.0217 83.1265 22.047 82.9321 20.7984L86.0507 20.498C86.192 21.1106 86.4924 21.5729 86.9518 21.885C87.4112 22.1972 88.0089 22.3533 88.7451 22.3533C89.5049 22.3533 90.1145 22.1972 90.5739 21.885C91.0391 21.5729 91.2718 21.1871 91.2718 20.7277C91.2718 20.339 91.1216 20.018 90.8212 19.7648C90.5267 19.5115 90.0673 19.3172 89.4431 19.1817L87.1285 18.6958C85.8269 18.4249 84.8639 17.9685 84.2396 17.3265C83.6153 16.6787 83.3061 15.86 83.312 14.8706C83.3061 14.0343 83.5329 13.3098 83.9923 12.6973C84.4575 12.0789 85.1024 11.6019 85.927 11.2662C86.7574 10.9246 87.7145 10.7538 88.7981 10.7538C90.3883 10.7538 91.6399 11.0924 92.5527 11.7697C93.4715 12.447 94.0399 13.3628 94.2578 14.5172ZM103.962 10.9305V13.4041H96.1616V10.9305H103.962ZM98.0875 7.67942H101.285V20.4185C101.285 20.8485 101.35 21.1783 101.48 21.408C101.615 21.6318 101.792 21.7849 102.01 21.8674C102.228 21.9498 102.469 21.991 102.734 21.991C102.935 21.991 103.117 21.9763 103.282 21.9469C103.453 21.9174 103.582 21.8909 103.671 21.8674L104.21 24.3675C104.039 24.4264 103.794 24.4912 103.476 24.5618C103.164 24.6325 102.781 24.6737 102.328 24.6855C101.527 24.7091 100.805 24.5883 100.164 24.3233C99.5216 24.0524 99.0121 23.6342 98.6352 23.0688C98.2641 22.5034 98.0816 21.7967 98.0875 20.9486V7.67942Z" fill="#30C0C0"/>
</svg>
